<?xml version="1.0" encoding="utf-8"?>
<!-- Generator: Adobe Illustrator 19.2.1, SVG Export Plug-In . SVG Version: 6.00 Build 0)  -->
<svg version="1.1" xmlns="http://www.w3.org/2000/svg" xmlns:xlink="http://www.w3.org/1999/xlink" x="0px" y="0px"
	 viewBox="0 0 300 300" style="enable-background:new 0 0 300 300;" xml:space="preserve">
<style type="text/css">
	.st0{display:none;}
	.st1{display:inline;}
	.st2{fill:none;stroke:#999999;stroke-miterlimit:10;}
	.st3{fill:none;stroke:#999999;stroke-width:0.976;stroke-miterlimit:10;}
	.st4{fill:none;stroke:#999999;stroke-width:0.488;stroke-miterlimit:10;}
	.st5{fill:none;stroke:#999999;stroke-width:1.07;stroke-miterlimit:10;}
	.st0{opacity:0;fill:none;stroke:#999999;stroke-width:.5;stroke-miterlimit:3; stroke-dasharray: 2000; animation: dash 1s forwards; webkit-animation-delay: 5s; animation-delay: 5s;}
	.st1{opacity:0;fill:none;stroke:#999999;stroke-width:.5;stroke-miterlimit:10; stroke-dasharray: 2500; animation: dash 1s forwards; webkit-animation-delay: 1s; animation-delay: 1s;}
	.st2{opacity:0;fill:none;stroke:##999999;stroke-width:.5;stroke-miterlimit:10; stroke-dasharray: 1000; animation: stem 1s forwards; webkit-animation-delay: 2s; animation-delay: 2s;}
	.st3{opacity:0;fill:none;stroke:#999999;stroke-width:.5;stroke-miterlimit:10; stroke-dasharray: 1000; animation: stem 1s forwards; webkit-animation-delay: 3s; animation-delay: 3s;}
	.st4{opacity:0;fill:none;stroke:#999999;stroke-width:.5;stroke-miterlimit:10; stroke-dasharray: 1000; animation: stem 1s forwards; webkit-animation-delay: 3s; animation-delay: 3s;}
	.st5{opacity:0;fill:none;stroke:#999999;stroke-width:.5;stroke-miterlimit:10; stroke-dasharray: 1000; animation: stem 1s forwards; webkit-animation-delay: 3s; animation-delay: 3s;}
	@keyframes dash {
	  0% {
        opacity: 0;
		stroke-dashoffset: 2000;
	  }
	  1% {
	  	opacity: 1;
	  }
	  100% {
	  	opacity:1;
		stroke-dashoffset: 0;
	  }
	}
	@keyframes text {
	  0% {
        opacity: 0;
		stroke-dashoffset: 0;
	  }
	  1% {
	  	opacity: 1;
	  }
	  100% {
	  	opacity:1;
		stroke-dashoffset: 1000;
	  }
	}
	@keyframes stem {
	  0% {
        opacity: 0;
		stroke-dashoffset: 1000;
	  }
	  1% {
	  	opacity: 1;
	  }
	  100% {
	  	opacity:1;
		stroke-dashoffset: 0;
	  }
	}
	
</style>
<g id="Layer_2" class="st0">
	<rect x="-3" class="st1" width="304" height="310"/>
</g>
<g id="Layer_1">
	<path class="st2" d="M250.2,204.3H49.8c-3.5,0-6.4-2.9-6.4-6.4V61.4c0-3.5,2.9-6.4,6.4-6.4h200.4c3.5,0,6.4,2.9,6.4,6.4v136.5
		C256.6,201.4,253.7,204.3,250.2,204.3z"/>
	<rect x="51.8" y="70.7" class="st3" width="196.4" height="124.5"/>
	<circle class="st4" cx="150" cy="63" r="1.3"/>
	<path class="st5" d="M257.1,222.4H42.9c-5.3,0-13.9-5.1-15.7-8.8c-2.2-4.4-1.4-8.8,4.5-8.8h236.8c5.8,0,6.6,4.3,4.5,8.8
		C271,217.3,262.4,222.4,257.1,222.4z"/>
	<line class="st5" x1="27" y1="211.9" x2="273" y2="211.9"/>
	<line class="st5" x1="248" y1="217" x2="255" y2="217"/>
	<line class="st5" x1="54" y1="217" x2="56" y2="217"/>
	<line class="st5" x1="50" y1="217" x2="52" y2="217"/>
	<line class="st5" x1="46" y1="217" x2="48" y2="217"/>
</g>
</svg>
